<svg viewBox="0 0 1000 1000" xmlns="http://www.w3.org/2000/svg">
  <!-- India Map Outline -->
  <path d="M200,300 L300,200 L500,150 L700,200 L800,300 L850,500 L800,700 L700,800 L500,850 L300,800 L200,700 L150,500 Z" 
        fill="#f0f0f0" stroke="#333" stroke-width="2"/>
  
  <!-- State Boundaries (Simplified) -->
  <!-- Maharashtra -->
  <path d="M300,400 L400,350 L450,400 L400,500 L300,450 Z" 
        fill="#e0e0e0" stroke="#666" stroke-width="1" id="maharashtra"/>
  
  <!-- Karnataka -->
  <path d="M350,500 L450,450 L500,500 L450,600 L350,550 Z" 
        fill="#e0e0e0" stroke="#666" stroke-width="1" id="karnataka"/>
  
  <!-- Tamil Nadu -->
  <path d="M400,600 L500,550 L550,600 L500,700 L400,650 Z" 
        fill="#e0e0e0" stroke="#666" stroke-width="1" id="tamil-nadu"/>
  
  <!-- Gujarat -->
  <path d="M200,300 L300,250 L350,300 L300,400 L200,350 Z" 
        fill="#e0e0e0" stroke="#666" stroke-width="1" id="gujarat"/>
  
  <!-- Uttar Pradesh -->
  <path d="M400,200 L500,150 L550,200 L500,300 L400,250 Z" 
        fill="#e0e0e0" stroke="#666" stroke-width="1" id="uttar-pradesh"/>
  
  <!-- West Bengal -->
  <path d="M600,300 L700,250 L750,300 L700,400 L600,350 Z" 
        fill="#e0e0e0" stroke="#666" stroke-width="1" id="west-bengal"/>
  
  <!-- Rajasthan -->
  <path d="M250,200 L350,150 L400,200 L350,300 L250,250 Z" 
        fill="#e0e0e0" stroke="#666" stroke-width="1" id="rajasthan"/>
  
  <!-- Madhya Pradesh -->
  <path d="M350,300 L450,250 L500,300 L450,400 L350,350 Z" 
        fill="#e0e0e0" stroke="#666" stroke-width="1" id="madhya-pradesh"/>
  
  <!-- Andhra Pradesh -->
  <path d="M400,500 L500,450 L550,500 L500,600 L400,550 Z" 
        fill="#e0e0e0" stroke="#666" stroke-width="1" id="andhra-pradesh"/>
  
  <!-- Kerala -->
  <path d="M350,650 L400,600 L450,650 L400,700 L350,650 Z" 
        fill="#e0e0e0" stroke="#666" stroke-width="1" id="kerala"/>
</svg>
